<svg width="224" height="224" viewBox="0 0 224 224" fill="none" xmlns="http://www.w3.org/2000/svg">
<g clip-path="url(#clip0_2242_10108)">
<path fill-rule="evenodd" clip-rule="evenodd" d="M224 112C224 173.856 173.856 224 112 224C50.1441 224 0 173.856 0 112C0 50.1441 50.1441 0 112 0C173.856 0 224 50.1441 224 112Z" fill="#F4F5F7"/>
<path fill-rule="evenodd" clip-rule="evenodd" d="M224 112C224 173.856 173.856 224 112 224C50.1441 224 0 173.856 0 112C0 50.1441 50.1441 0 112 0C173.856 0 224 50.1441 224 112Z" fill="#F8F8F8"/>
<g filter="url(#filter0_d_2242_10108)">
<path d="M-79 93H181V157H-79V93Z" fill="#FCFCFD"/>
<rect x="-30" y="129" width="162" height="18" rx="2" fill="#BBC5D3"/>
</g>
<g filter="url(#filter1_d_2242_10108)">
<circle cx="180.5" cy="92.5" r="22.5" fill="#052550"/>
<path d="M176.8 79C171.404 79 167 83.4042 167 88.8C167 94.1958 171.404 98.6 176.8 98.6C179.247 98.6 181.483 97.6872 183.204 96.1938L183.8 96.7898V98.6L192.2 107L195 104.2L186.6 95.8H184.79L184.194 95.2039C185.687 93.483 186.6 91.2472 186.6 88.8C186.6 83.4042 182.196 79 176.8 79ZM176.8 81.8C180.683 81.8 183.8 84.9174 183.8 88.8C183.8 92.6826 180.683 95.8 176.8 95.8C172.917 95.8 169.8 92.6826 169.8 88.8C169.8 84.9174 172.917 81.8 176.8 81.8Z" fill="white"/>
</g>
</g>
<defs>
<filter id="filter0_d_2242_10108" x="-85" y="87" width="272" height="76" filterUnits="userSpaceOnUse" color-interpolation-filters="sRGB">
<feFlood flood-opacity="0" result="BackgroundImageFix"/>
<feColorMatrix in="SourceAlpha" type="matrix" values="0 0 0 0 0 0 0 0 0 0 0 0 0 0 0 0 0 0 127 0" result="hardAlpha"/>
<feOffset/>
<feGaussianBlur stdDeviation="3"/>
<feComposite in2="hardAlpha" operator="out"/>
<feColorMatrix type="matrix" values="0 0 0 0 0 0 0 0 0 0 0 0 0 0 0 0 0 0 0.15 0"/>
<feBlend mode="normal" in2="BackgroundImageFix" result="effect1_dropShadow_2242_10108"/>
<feBlend mode="normal" in="SourceGraphic" in2="effect1_dropShadow_2242_10108" result="shape"/>
</filter>
<filter id="filter1_d_2242_10108" x="152" y="64" width="57" height="57" filterUnits="userSpaceOnUse" color-interpolation-filters="sRGB">
<feFlood flood-opacity="0" result="BackgroundImageFix"/>
<feColorMatrix in="SourceAlpha" type="matrix" values="0 0 0 0 0 0 0 0 0 0 0 0 0 0 0 0 0 0 127 0" result="hardAlpha"/>
<feOffset/>
<feGaussianBlur stdDeviation="3"/>
<feComposite in2="hardAlpha" operator="out"/>
<feColorMatrix type="matrix" values="0 0 0 0 0 0 0 0 0 0 0 0 0 0 0 0 0 0 0.15 0"/>
<feBlend mode="normal" in2="BackgroundImageFix" result="effect1_dropShadow_2242_10108"/>
<feBlend mode="normal" in="SourceGraphic" in2="effect1_dropShadow_2242_10108" result="shape"/>
</filter>
<clipPath id="clip0_2242_10108">
<rect width="224" height="224" rx="112" fill="white"/>
</clipPath>
</defs>
</svg>
