<svg width="224" height="224" viewBox="0 0 224 224" fill="none" xmlns="http://www.w3.org/2000/svg">
<g clip-path="url(#clip0_2242_10310)">
<path fill-rule="evenodd" clip-rule="evenodd" d="M224 112C224 173.856 173.856 224 112 224C50.1441 224 0 173.856 0 112C0 50.1441 50.1441 0 112 0C173.856 0 224 50.1441 224 112Z" fill="#F4F5F7"/>
<path fill-rule="evenodd" clip-rule="evenodd" d="M224 112C224 173.856 173.856 224 112 224C50.1441 224 0 173.856 0 112C0 50.1441 50.1441 0 112 0C173.856 0 224 50.1441 224 112Z" fill="#F8F8F8"/>
<g filter="url(#filter0_d_2242_10310)">
<path d="M-79 93H181V157H-79V93Z" fill="#FCFCFD"/>
<rect x="-30" y="129" width="162" height="18" rx="2" fill="#BBC5D3"/>
</g>
<g filter="url(#filter1_d_2242_10310)">
<path d="M180.5 70C186.467 70 192.19 72.3705 196.41 76.5901C200.629 80.8097 203 86.5326 203 92.5C203 98.4674 200.629 104.19 196.41 108.41C192.19 112.629 186.467 115 180.5 115C174.533 115 168.81 112.629 164.59 108.41C160.371 104.19 158 98.4674 158 92.5C158 86.5326 160.371 80.8097 164.59 76.5901C168.81 72.3705 174.533 70 180.5 70ZM180.5 89.7711L175.274 84.5446C174.912 84.1828 174.421 83.9795 173.909 83.9795C173.397 83.9795 172.907 84.1828 172.545 84.5446C172.183 84.9065 171.979 85.3973 171.979 85.9091C171.979 86.4209 172.183 86.9117 172.545 87.2736L177.771 92.5L172.545 97.7264C172.365 97.9056 172.223 98.1183 172.126 98.3525C172.029 98.5866 171.979 98.8375 171.979 99.0909C171.979 99.3443 172.029 99.5952 172.126 99.8293C172.223 100.063 172.365 100.276 172.545 100.455C172.724 100.635 172.937 100.777 173.171 100.874C173.405 100.971 173.656 101.021 173.909 101.021C174.163 101.021 174.413 100.971 174.648 100.874C174.882 100.777 175.094 100.635 175.274 100.455L180.5 95.2289L185.726 100.455C185.906 100.635 186.118 100.777 186.352 100.874C186.587 100.971 186.837 101.021 187.091 101.021C187.344 101.021 187.595 100.971 187.829 100.874C188.063 100.777 188.276 100.635 188.455 100.455C188.635 100.276 188.777 100.063 188.874 99.8293C188.971 99.5952 189.021 99.3443 189.021 99.0909C189.021 98.8375 188.971 98.5866 188.874 98.3525C188.777 98.1183 188.635 97.9056 188.455 97.7264L183.229 92.5L188.455 87.2736C188.635 87.0944 188.777 86.8817 188.874 86.6476C188.971 86.4134 189.021 86.1625 189.021 85.9091C189.021 85.6557 188.971 85.4048 188.874 85.1707C188.777 84.9365 188.635 84.7238 188.455 84.5446C188.276 84.3655 188.063 84.2233 187.829 84.1263C187.595 84.0294 187.344 83.9795 187.091 83.9795C186.837 83.9795 186.587 84.0294 186.352 84.1263C186.118 84.2233 185.906 84.3655 185.726 84.5446L180.5 89.7711Z" fill="#052550"/>
<path d="M180.5 89.7711L175.274 84.5446C174.912 84.1828 174.421 83.9795 173.909 83.9795C173.397 83.9795 172.907 84.1828 172.545 84.5446C172.183 84.9065 171.979 85.3973 171.979 85.9091C171.979 86.4209 172.183 86.9117 172.545 87.2736L177.771 92.5L172.545 97.7264C172.365 97.9056 172.223 98.1183 172.126 98.3525C172.029 98.5866 171.979 98.8375 171.979 99.0909C171.979 99.3443 172.029 99.5952 172.126 99.8293C172.223 100.063 172.365 100.276 172.545 100.455C172.724 100.635 172.937 100.777 173.171 100.874C173.405 100.971 173.656 101.021 173.909 101.021C174.163 101.021 174.413 100.971 174.648 100.874C174.882 100.777 175.094 100.635 175.274 100.455L180.5 95.2289L185.726 100.455C185.906 100.635 186.118 100.777 186.352 100.874C186.587 100.971 186.837 101.021 187.091 101.021C187.344 101.021 187.595 100.971 187.829 100.874C188.063 100.777 188.276 100.635 188.455 100.455C188.635 100.276 188.777 100.063 188.874 99.8293C188.971 99.5952 189.021 99.3443 189.021 99.0909C189.021 98.8375 188.971 98.5866 188.874 98.3525C188.777 98.1183 188.635 97.9056 188.455 97.7264L183.229 92.5L188.455 87.2736C188.635 87.0944 188.777 86.8817 188.874 86.6476C188.971 86.4134 189.021 86.1625 189.021 85.9091C189.021 85.6557 188.971 85.4048 188.874 85.1707C188.777 84.9365 188.635 84.7238 188.455 84.5446C188.276 84.3655 188.063 84.2233 187.829 84.1263C187.595 84.0294 187.344 83.9795 187.091 83.9795C186.837 83.9795 186.587 84.0294 186.352 84.1263C186.118 84.2233 185.906 84.3655 185.726 84.5446L180.5 89.7711Z" fill="white"/>
</g>
</g>
<defs>
<filter id="filter0_d_2242_10310" x="-85" y="87" width="272" height="76" filterUnits="userSpaceOnUse" color-interpolation-filters="sRGB">
<feFlood flood-opacity="0" result="BackgroundImageFix"/>
<feColorMatrix in="SourceAlpha" type="matrix" values="0 0 0 0 0 0 0 0 0 0 0 0 0 0 0 0 0 0 127 0" result="hardAlpha"/>
<feOffset/>
<feGaussianBlur stdDeviation="3"/>
<feComposite in2="hardAlpha" operator="out"/>
<feColorMatrix type="matrix" values="0 0 0 0 0 0 0 0 0 0 0 0 0 0 0 0 0 0 0.15 0"/>
<feBlend mode="normal" in2="BackgroundImageFix" result="effect1_dropShadow_2242_10310"/>
<feBlend mode="normal" in="SourceGraphic" in2="effect1_dropShadow_2242_10310" result="shape"/>
</filter>
<filter id="filter1_d_2242_10310" x="152" y="64" width="57" height="57" filterUnits="userSpaceOnUse" color-interpolation-filters="sRGB">
<feFlood flood-opacity="0" result="BackgroundImageFix"/>
<feColorMatrix in="SourceAlpha" type="matrix" values="0 0 0 0 0 0 0 0 0 0 0 0 0 0 0 0 0 0 127 0" result="hardAlpha"/>
<feOffset/>
<feGaussianBlur stdDeviation="3"/>
<feComposite in2="hardAlpha" operator="out"/>
<feColorMatrix type="matrix" values="0 0 0 0 0 0 0 0 0 0 0 0 0 0 0 0 0 0 0.15 0"/>
<feBlend mode="normal" in2="BackgroundImageFix" result="effect1_dropShadow_2242_10310"/>
<feBlend mode="normal" in="SourceGraphic" in2="effect1_dropShadow_2242_10310" result="shape"/>
</filter>
<clipPath id="clip0_2242_10310">
<rect width="224" height="224" rx="112" fill="white"/>
</clipPath>
</defs>
</svg>
