<svg width="224" height="224" viewBox="0 0 224 224" fill="none" xmlns="http://www.w3.org/2000/svg">
<g clip-path="url(#clip0_2242_10609)">
<path fill-rule="evenodd" clip-rule="evenodd" d="M224 112C224 173.856 173.856 224 112 224C50.1441 224 0 173.856 0 112C0 50.1441 50.1441 0 112 0C173.856 0 224 50.1441 224 112Z" fill="#F4F5F7"/>
<path fill-rule="evenodd" clip-rule="evenodd" d="M224 112C224 173.856 173.856 224 112 224C50.1441 224 0 173.856 0 112C0 50.1441 50.1441 0 112 0C173.856 0 224 50.1441 224 112Z" fill="#F8F8F8"/>
<g filter="url(#filter0_d_2242_10609)">
<path d="M-79 93H181V157H-79V93Z" fill="#EDEFF3"/>
<rect x="-30" y="129" width="162" height="18" rx="2" fill="#BBC5D3"/>
</g>
<g filter="url(#filter1_d_2242_10609)">
<path d="M179.165 70.8494C178.881 71.0917 178.428 71.4482 177.801 71.8774C175.943 73.1143 173.948 74.1307 171.855 74.906C168.857 76.0336 165.707 76.7056 162.509 76.8997C162.313 76.911 162.117 76.9191 161.921 76.924H161.748C161.519 76.9217 161.292 76.9647 161.08 77.0507C160.868 77.1366 160.676 77.2638 160.513 77.4247C160.35 77.5856 160.221 77.7772 160.133 77.9883C160.045 78.1994 160 78.4259 160 78.6546V88.1904C160 92.7029 161.177 97.1375 163.413 101.057C165.65 104.976 168.87 108.244 172.755 110.54L179.892 114.759C180.159 114.917 180.463 115 180.773 115C181.083 115 181.387 114.917 181.654 114.759L188.784 110.543C192.668 108.247 195.887 104.979 198.123 101.06C200.359 97.1404 201.535 92.706 201.535 88.1938V78.6546C201.535 78.425 201.49 78.1976 201.401 77.9858C201.312 77.774 201.182 77.582 201.019 77.4209C200.855 77.2599 200.661 77.133 200.448 77.0477C200.234 76.9623 200.006 76.9203 199.777 76.924H199.604C198.673 76.8976 197.744 76.8237 196.821 76.7024C194.392 76.3865 192.009 75.7847 189.722 74.9095C187.626 74.1195 185.624 73.0979 183.755 71.8636C183.277 71.5437 182.815 71.2007 182.37 70.8356C182.238 70.7271 182.11 70.614 181.986 70.4964C181.659 70.1753 181.219 69.9968 180.761 70C180.302 70.0033 179.864 70.188 179.542 70.5137L179.165 70.8494ZM180.768 82.1159C181.227 82.1159 181.667 82.2982 181.991 82.6227C182.316 82.9473 182.498 83.3875 182.498 83.8465V94.2303C182.498 94.6893 182.316 95.1295 181.991 95.454C181.667 95.7786 181.227 95.9609 180.768 95.9609C180.309 95.9609 179.868 95.7786 179.544 95.454C179.219 95.1295 179.037 94.6893 179.037 94.2303V89.0384V83.8465C179.037 83.3875 179.219 82.9473 179.544 82.6227C179.868 82.2982 180.309 82.1159 180.768 82.1159ZM183.364 102.018C183.364 102.707 183.09 103.367 182.603 103.854C182.116 104.341 181.456 104.614 180.768 104.614C180.079 104.614 179.419 104.341 178.932 103.854C178.445 103.367 178.172 102.707 178.172 102.018C178.172 101.33 178.445 100.669 178.932 100.183C179.419 99.6957 180.079 99.4222 180.768 99.4222C181.456 99.4222 182.116 99.6957 182.603 100.183C183.09 100.669 183.364 101.33 183.364 102.018Z" fill="#052550"/>
<path d="M180.768 82.1159C181.227 82.1159 181.667 82.2982 181.991 82.6227C182.316 82.9473 182.498 83.3875 182.498 83.8465V94.2303C182.498 94.6893 182.316 95.1295 181.991 95.454C181.667 95.7786 181.227 95.9609 180.768 95.9609C180.309 95.9609 179.868 95.7786 179.544 95.454C179.219 95.1295 179.037 94.6893 179.037 94.2303V89.0384V83.8465C179.037 83.3875 179.219 82.9473 179.544 82.6227C179.868 82.2982 180.309 82.1159 180.768 82.1159Z" fill="white"/>
<path d="M183.364 102.018C183.364 102.707 183.09 103.367 182.603 103.854C182.116 104.341 181.456 104.614 180.768 104.614C180.079 104.614 179.419 104.341 178.932 103.854C178.445 103.367 178.172 102.707 178.172 102.018C178.172 101.33 178.445 100.669 178.932 100.183C179.419 99.6957 180.079 99.4222 180.768 99.4222C181.456 99.4222 182.116 99.6957 182.603 100.183C183.09 100.669 183.364 101.33 183.364 102.018Z" fill="white"/>
</g>
</g>
<defs>
<filter id="filter0_d_2242_10609" x="-85" y="87" width="272" height="76" filterUnits="userSpaceOnUse" color-interpolation-filters="sRGB">
<feFlood flood-opacity="0" result="BackgroundImageFix"/>
<feColorMatrix in="SourceAlpha" type="matrix" values="0 0 0 0 0 0 0 0 0 0 0 0 0 0 0 0 0 0 127 0" result="hardAlpha"/>
<feOffset/>
<feGaussianBlur stdDeviation="3"/>
<feComposite in2="hardAlpha" operator="out"/>
<feColorMatrix type="matrix" values="0 0 0 0 0 0 0 0 0 0 0 0 0 0 0 0 0 0 0.15 0"/>
<feBlend mode="normal" in2="BackgroundImageFix" result="effect1_dropShadow_2242_10609"/>
<feBlend mode="normal" in="SourceGraphic" in2="effect1_dropShadow_2242_10609" result="shape"/>
</filter>
<filter id="filter1_d_2242_10609" x="154" y="64" width="53.5352" height="57" filterUnits="userSpaceOnUse" color-interpolation-filters="sRGB">
<feFlood flood-opacity="0" result="BackgroundImageFix"/>
<feColorMatrix in="SourceAlpha" type="matrix" values="0 0 0 0 0 0 0 0 0 0 0 0 0 0 0 0 0 0 127 0" result="hardAlpha"/>
<feOffset/>
<feGaussianBlur stdDeviation="3"/>
<feColorMatrix type="matrix" values="0 0 0 0 0 0 0 0 0 0 0 0 0 0 0 0 0 0 0.15 0"/>
<feBlend mode="normal" in2="BackgroundImageFix" result="effect1_dropShadow_2242_10609"/>
<feBlend mode="normal" in="SourceGraphic" in2="effect1_dropShadow_2242_10609" result="shape"/>
</filter>
<clipPath id="clip0_2242_10609">
<rect width="224" height="224" rx="112" fill="white"/>
</clipPath>
</defs>
</svg>
