<svg width="224" height="224" viewBox="0 0 224 224" fill="none" xmlns="http://www.w3.org/2000/svg">
<g clip-path="url(#clip0_2242_10185)">
<path fill-rule="evenodd" clip-rule="evenodd" d="M224 112C224 173.856 173.856 224 112 224C50.1441 224 0 173.856 0 112C0 50.1441 50.1441 0 112 0C173.856 0 224 50.1441 224 112Z" fill="#F4F5F7"/>
<path fill-rule="evenodd" clip-rule="evenodd" d="M224 112C224 173.856 173.856 224 112 224C50.1441 224 0 173.856 0 112C0 50.1441 50.1441 0 112 0C173.856 0 224 50.1441 224 112Z" fill="#F8F8F8"/>
<g filter="url(#filter0_d_2242_10185)">
<path d="M-79 93H181V157H-79V93Z" fill="#FCFCFD"/>
<rect x="-30" y="129" width="162" height="18" rx="2" fill="#BBC5D3"/>
</g>
<g filter="url(#filter1_d_2242_10185)">
<path d="M203 92.5C203 104.926 192.926 115 180.5 115C168.074 115 158 104.926 158 92.5C158 80.0736 168.074 70 180.5 70C192.926 70 203 80.0736 203 92.5Z" fill="#052550"/>
<path d="M190 87H188.5V84.1429C188.5 80.2 185.14 77 181 77C176.86 77 173.5 80.2 173.5 84.1429V87H172C170.35 87 169 88.2857 169 89.8571V104.143C169 105.714 170.35 107 172 107H190C191.65 107 193 105.714 193 104.143V89.8571C193 88.2857 191.65 87 190 87ZM181 99.8571C179.35 99.8571 178 98.5714 178 97C178 95.4286 179.35 94.1429 181 94.1429C182.65 94.1429 184 95.4286 184 97C184 98.5714 182.65 99.8571 181 99.8571ZM185.65 87H176.35V84.1429C176.35 81.7 178.435 79.7143 181 79.7143C183.565 79.7143 185.65 81.7 185.65 84.1429V87Z" fill="white"/>
</g>
</g>
<defs>
<filter id="filter0_d_2242_10185" x="-85" y="87" width="272" height="76" filterUnits="userSpaceOnUse" color-interpolation-filters="sRGB">
<feFlood flood-opacity="0" result="BackgroundImageFix"/>
<feColorMatrix in="SourceAlpha" type="matrix" values="0 0 0 0 0 0 0 0 0 0 0 0 0 0 0 0 0 0 127 0" result="hardAlpha"/>
<feOffset/>
<feGaussianBlur stdDeviation="3"/>
<feComposite in2="hardAlpha" operator="out"/>
<feColorMatrix type="matrix" values="0 0 0 0 0 0 0 0 0 0 0 0 0 0 0 0 0 0 0.15 0"/>
<feBlend mode="normal" in2="BackgroundImageFix" result="effect1_dropShadow_2242_10185"/>
<feBlend mode="normal" in="SourceGraphic" in2="effect1_dropShadow_2242_10185" result="shape"/>
</filter>
<filter id="filter1_d_2242_10185" x="152" y="64" width="57" height="57" filterUnits="userSpaceOnUse" color-interpolation-filters="sRGB">
<feFlood flood-opacity="0" result="BackgroundImageFix"/>
<feColorMatrix in="SourceAlpha" type="matrix" values="0 0 0 0 0 0 0 0 0 0 0 0 0 0 0 0 0 0 127 0" result="hardAlpha"/>
<feOffset/>
<feGaussianBlur stdDeviation="3"/>
<feComposite in2="hardAlpha" operator="out"/>
<feColorMatrix type="matrix" values="0 0 0 0 0 0 0 0 0 0 0 0 0 0 0 0 0 0 0.15 0"/>
<feBlend mode="normal" in2="BackgroundImageFix" result="effect1_dropShadow_2242_10185"/>
<feBlend mode="normal" in="SourceGraphic" in2="effect1_dropShadow_2242_10185" result="shape"/>
</filter>
<clipPath id="clip0_2242_10185">
<rect width="224" height="224" rx="112" fill="white"/>
</clipPath>
</defs>
</svg>
